<svg width="16" height="16" viewBox="0 0 16 16" fill="none" xmlns="http://www.w3.org/2000/svg">
<path d="M13.4336 8.70898L9.37109 12.7715C9.21875 12.9238 9.01562 13 8.8125 13C8.58398 13 8.38086 12.9238 8.22852 12.7715C7.89844 12.4668 7.89844 11.9336 8.22852 11.6289L10.8945 8.9375H3.125C2.66797 8.9375 2.3125 8.58203 2.3125 8.125C2.3125 7.69336 2.66797 7.3125 3.125 7.3125H10.8945L8.22852 4.64648C7.89844 4.3418 7.89844 3.80859 8.22852 3.50391C8.5332 3.17383 9.06641 3.17383 9.37109 3.50391L13.4336 7.56641C13.7637 7.87109 13.7637 8.4043 13.4336 8.70898Z" fill="#762BFF"/>
</svg>
