<svg width="204" height="41" viewBox="0 0 204 41" fill="none" xmlns="http://www.w3.org/2000/svg">
<g clip-path="url(#clip0_6017_5309)">
<path fill-rule="evenodd" clip-rule="evenodd" d="M75.2137 1.14874L70.6439 38.8197C70.5903 39.2602 70.9298 39.6489 71.3683 39.6489H76.4026C76.7712 39.6489 77.082 39.3704 77.1271 38.9998L81.6966 1.32885C81.7501 0.88839 81.4106 0.5 80.9721 0.5H75.9382C75.5696 0.5 75.2588 0.778186 75.2137 1.14874Z" fill="#141414"/>
<path fill-rule="evenodd" clip-rule="evenodd" d="M129.682 1.14874L125.112 38.8197C125.058 39.2602 125.398 39.6489 125.836 39.6489H130.871C131.239 39.6489 131.55 39.3704 131.595 38.9998L136.165 1.32885C136.218 0.88839 135.879 0.5 135.44 0.5H130.406C130.038 0.5 129.727 0.778186 129.682 1.14874Z" fill="#141414"/>
<path fill-rule="evenodd" clip-rule="evenodd" d="M0.16799 38.7641V35.1146C0.16799 34.7095 0.316048 34.3594 0.614657 34.0638C2.36502 32.2212 5.28847 28.9409 9.38606 24.222L12.9615 20.1301C16.3875 16.1851 18.1012 13.2001 18.1012 11.1721C18.1012 9.66021 17.561 8.42588 16.4811 7.46738C15.4006 6.50888 14.0036 6.02945 12.2914 6.02945C10.5776 6.02945 9.19066 6.50888 8.12898 7.46738C7.06766 8.42588 6.537 9.6979 6.537 11.2824V12.4991C6.537 13.0891 6.23839 13.3833 5.6426 13.3833H0.894402C0.297897 13.3833 0 13.0891 0 12.4991V10.3429C0.0743852 8.35226 0.651315 6.61984 1.73221 5.14457C2.81204 3.67106 4.27412 2.52797 6.11774 1.71636C7.96135 0.90651 10.0189 0.5 12.2914 0.5C14.7863 0.5 16.9644 0.96111 18.8276 1.88298C20.6898 2.80414 22.1237 4.067 23.1292 5.67049C24.135 7.27399 24.6379 9.07088 24.6379 11.0612C24.6379 14.0843 23.0174 17.5681 19.7776 21.5113C18.5849 23.0236 17.1698 24.7004 15.5312 26.5438C13.8919 28.3871 12.2536 30.2129 10.615 32.0179L9.05079 33.7316C8.93904 33.8426 8.90131 33.9356 8.93904 34.0085C8.97569 34.0825 9.0693 34.1188 9.21842 34.1188H24.6379C25.2333 34.1188 25.5319 34.4143 25.5319 35.0037V38.7641C25.5319 39.3534 25.2333 39.6489 24.6379 39.6489H1.06168C0.46553 39.6489 0.16799 39.3534 0.16799 38.7641Z" fill="#141414"/>
<path fill-rule="evenodd" clip-rule="evenodd" d="M34.8936 38.7539V1.395C34.8936 0.798926 35.1968 0.5 35.8034 0.5H49.4479C52.1386 0.5 54.508 0.966737 56.5543 1.89807C58.6007 2.83048 60.183 4.163 61.3015 5.89634C62.4188 7.63039 62.9787 9.6534 62.9787 11.965V28.1843C62.9787 30.4963 62.4188 32.5178 61.3015 34.2512C60.183 35.9852 58.6007 37.3188 56.5543 38.2502C54.508 39.1833 52.1386 39.6489 49.4479 39.6489H35.8034C35.1968 39.6489 34.8936 39.35 34.8936 38.7539ZM41.8298 34.0556H49.7319C51.7405 34.0556 53.3421 33.4321 54.5359 32.1826C55.73 30.9334 56.3457 29.266 56.3837 27.1767V13.0274C56.3837 10.9029 55.7771 9.21588 54.5645 7.96566C53.3512 6.71723 51.7217 6.0923 49.6754 6.0923H41.8298C41.6023 6.0923 41.4886 6.20453 41.4886 6.42828V33.7203C41.4886 33.9441 41.6023 34.0556 41.8298 34.0556Z" fill="#141414"/>
<mask id="mask0_6017_5309" style="mask-type:luminance" maskUnits="userSpaceOnUse" x="89" y="0" width="29" height="41">
<path fill-rule="evenodd" clip-rule="evenodd" d="M89.3617 0.5H117.447V40.5H89.3617V0.5Z" fill="white"/>
</mask>
<g mask="url(#mask0_6017_5309)">
<path fill-rule="evenodd" clip-rule="evenodd" d="M96.0458 38.8511C93.9109 37.7532 92.2631 36.1976 91.1029 34.1868C89.9414 32.1756 89.3617 29.8669 89.3617 27.2597V13.7403C89.3617 11.096 89.9414 8.77736 91.1029 6.78471C92.2631 4.79348 93.9109 3.24747 96.0458 2.14812C98.1803 1.05018 100.652 0.499969 103.46 0.499969C106.231 0.499969 108.674 1.04022 110.791 2.12C112.906 3.2005 114.544 4.67212 115.705 6.53309C116.866 8.3962 117.447 10.5006 117.447 12.8463V13.0698C117.447 13.6663 117.147 13.9631 116.548 13.9631H111.886C111.623 13.9631 111.408 13.9179 111.24 13.8239C111.071 13.7314 110.987 13.61 110.987 13.4609V13.0139C110.987 11.0028 110.303 9.34572 108.937 8.04244C107.569 6.73915 105.744 6.0868 103.46 6.0868C101.176 6.0868 99.3404 6.76656 97.9552 8.12572C96.5697 9.48595 95.8769 11.2825 95.8769 13.5161V27.4825C95.8769 29.7175 96.6072 31.5151 98.068 32.8743C99.5283 34.2338 101.419 34.9125 103.741 34.9125C105.988 34.9125 107.757 34.3259 109.049 33.1533C110.341 31.9802 110.987 30.3691 110.987 28.3206V24.9129C110.987 24.6894 110.875 24.578 110.65 24.578H104.022C103.423 24.578 103.123 24.2801 103.123 23.684V19.9969C103.123 19.4022 103.423 19.1036 104.022 19.1036H116.548C117.147 19.1036 117.447 19.4022 117.447 19.9969V26.9248C117.447 31.2072 116.183 34.5413 113.655 36.9236C111.128 39.3081 107.729 40.5 103.46 40.5C100.652 40.5 98.1803 39.9498 96.0458 38.8511Z" fill="#141414"/>
</g>
<path fill-rule="evenodd" clip-rule="evenodd" d="M171.064 2.24607V6.10467C171.064 6.70181 170.761 6.99931 170.158 6.99931H160.022C159.795 6.99931 159.682 7.11154 159.682 7.33529V39.605C159.682 40.2011 159.379 40.5 158.776 40.5H154.019C153.415 40.5 153.113 40.2011 153.113 39.605V7.33529C153.113 7.11154 153 6.99931 152.773 6.99931H143.034C142.429 6.99931 142.128 6.70181 142.128 6.10467V2.24607C142.128 1.65 142.429 1.35107 143.034 1.35107H170.158C170.761 1.35107 171.064 1.65 171.064 2.24607Z" fill="#141414"/>
<path fill-rule="evenodd" clip-rule="evenodd" d="M182.018 39.1027C179.868 38.1721 178.215 36.8599 177.057 35.164C175.898 33.47 175.319 31.5051 175.319 29.2704V28.0977C175.319 27.5019 175.618 27.2033 176.216 27.2033H180.812C181.41 27.2033 181.71 27.4823 181.71 28.0415V28.9355C181.71 30.6488 182.466 32.0734 183.98 33.2091C185.494 34.3458 187.502 34.9124 190.006 34.9124C192.285 34.9124 194.005 34.4291 195.164 33.4607C196.322 32.4923 196.901 31.2452 196.901 29.7177C196.901 28.675 196.584 27.7898 195.948 27.0642C195.312 26.3381 194.407 25.6765 193.23 25.0804C192.052 24.4846 190.286 23.7397 187.932 22.8464C185.278 21.878 183.129 20.9659 181.486 20.1082C179.84 19.2519 178.467 18.0888 177.365 16.6164C176.262 15.1466 175.712 13.3123 175.712 11.1139C175.712 7.83753 176.907 5.24838 179.299 3.34896C181.69 1.44989 184.886 0.5 188.885 0.5C191.688 0.5 194.163 0.984732 196.313 1.95242C198.462 2.92152 200.134 4.27038 201.33 6.00253C202.525 7.73468 203.124 9.7366 203.124 12.0083V12.734C203.124 13.3312 202.824 13.628 202.227 13.628H197.63C197.368 13.628 197.154 13.5636 196.985 13.4326C196.817 13.3023 196.733 13.1447 196.733 12.9582V12.3432C196.733 10.5925 196.013 9.11271 194.575 7.90195C193.136 6.6919 191.146 6.08652 188.605 6.08652C186.549 6.08652 184.952 6.51466 183.812 7.37095C182.671 8.22866 182.102 9.438 182.102 11.0025C182.102 12.1204 182.401 13.0326 182.999 13.7401C183.596 14.448 184.493 15.0904 185.69 15.6673C186.885 16.2452 188.735 16.9802 191.239 17.8745C193.893 18.8792 196.013 19.7928 197.602 20.6114C199.19 21.431 200.554 22.5767 201.694 24.0469C202.834 25.5182 203.404 27.3528 203.404 29.5494C203.404 31.7104 202.843 33.6198 201.722 35.2761C200.601 36.9343 198.994 38.2183 196.901 39.1309C194.808 40.0437 192.341 40.5 189.502 40.5C186.661 40.5 184.167 40.0348 182.018 39.1027Z" fill="#141414"/>
</g>
<defs>
<clipPath id="clip0_6017_5309">
<rect width="203.5" height="40" fill="white" transform="translate(0 0.5)"/>
</clipPath>
</defs>
</svg>
