<svg width="407" height="81" viewBox="0 0 407 81" fill="none" xmlns="http://www.w3.org/2000/svg">
<g clip-path="url(#clip0_9_863)">
<path fill-rule="evenodd" clip-rule="evenodd" d="M150.427 1.36749L141.288 76.7095C141.181 77.5904 141.86 78.3679 142.737 78.3679H152.805C153.542 78.3679 154.164 77.8108 154.254 77.0697L163.393 1.72771C163.5 0.846787 162.821 0.0700073 161.944 0.0700073H151.876C151.139 0.0700073 150.518 0.626379 150.427 1.36749Z" fill="white"/>
<path fill-rule="evenodd" clip-rule="evenodd" d="M259.364 1.36749L250.224 76.7095C250.117 77.5904 250.796 78.3679 251.673 78.3679H261.741C262.479 78.3679 263.1 77.8108 263.19 77.0697L272.329 1.72771C272.436 0.846787 271.757 0.0700073 270.88 0.0700073H260.813C260.075 0.0700073 259.454 0.626379 259.364 1.36749Z" fill="white"/>
<path fill-rule="evenodd" clip-rule="evenodd" d="M0.335979 76.5981V69.2993C0.335979 68.4891 0.632096 67.7888 1.22931 67.1977C4.73004 63.5123 10.5769 56.9518 18.7721 47.514L25.9231 39.3303C32.775 31.4403 36.2025 25.4702 36.2025 21.4142C36.2025 18.3904 35.1219 15.9218 32.9622 14.0048C30.8012 12.0878 28.0073 11.1289 24.5827 11.1289C21.1553 11.1289 18.3813 12.0878 16.258 14.0048C14.1353 15.9218 13.074 18.4658 13.074 21.6348V24.0682C13.074 25.2483 12.4768 25.8365 11.2852 25.8365H1.7888C0.595793 25.8365 0 25.2483 0 24.0682V19.7558C0.14877 15.7745 1.30263 12.3097 3.46443 9.35914C5.62409 6.41212 8.54825 4.12595 12.2355 2.50273C15.9227 0.883027 20.0377 0.0700073 24.5827 0.0700073C29.5726 0.0700073 33.9289 0.992228 37.6553 2.83596C41.3795 4.67829 44.2474 7.20401 46.2583 10.411C48.2699 13.618 49.2757 17.2118 49.2757 21.1923C49.2757 27.2385 46.0348 34.2063 39.5551 42.0927C37.1698 45.1172 34.3396 48.4707 31.0624 52.1575C27.7838 55.8443 24.5072 59.4958 21.23 63.1058L18.1016 66.5333C17.8781 66.7552 17.8026 66.9412 17.8781 67.0871C17.9514 67.235 18.1386 67.3076 18.4368 67.3076H49.2757C50.4666 67.3076 51.0638 67.8987 51.0638 69.0773V76.5981C51.0638 77.7768 50.4666 78.3679 49.2757 78.3679H2.12336C0.93106 78.3679 0.335979 77.7768 0.335979 76.5981Z" fill="white"/>
<path fill-rule="evenodd" clip-rule="evenodd" d="M69.7872 76.5779V1.86C69.7872 0.667859 70.3935 0.0700073 71.6068 0.0700073H98.8959C104.277 0.0700073 109.016 1.00348 113.109 2.86616C117.201 4.73097 120.366 7.396 122.603 10.8627C124.838 14.3308 125.957 18.3768 125.957 23V55.4386C125.957 60.0625 124.838 64.1057 122.603 67.5723C120.366 71.0405 117.201 73.7076 113.109 75.5703C109.016 77.4365 104.277 78.3679 98.8959 78.3679H71.6068C70.3935 78.3679 69.7872 77.77 69.7872 76.5779ZM83.6596 67.1811H99.4638C103.481 67.1811 106.684 65.9341 109.072 63.4351C111.46 60.9368 112.691 57.602 112.767 53.4234V25.1249C112.767 20.8758 111.554 17.5018 109.129 15.0013C106.702 12.5045 103.443 11.2546 99.3508 11.2546H83.6596C83.2047 11.2546 82.9772 11.4791 82.9772 11.9266V66.5106C82.9772 66.9581 83.2047 67.1811 83.6596 67.1811Z" fill="white"/>
<mask id="mask0_9_863" style="mask-type:luminance" maskUnits="userSpaceOnUse" x="178" y="0" width="57" height="81">
<path fill-rule="evenodd" clip-rule="evenodd" d="M178.723 0.0700073H234.894V80.07H178.723V0.0700073Z" fill="white"/>
</mask>
<g mask="url(#mask0_9_863)">
<path fill-rule="evenodd" clip-rule="evenodd" d="M192.092 76.7723C187.822 74.5765 184.526 71.4652 182.206 67.4436C179.883 63.4213 178.723 58.8039 178.723 53.5894V26.5507C178.723 21.2621 179.883 16.6248 182.206 12.6395C184.526 8.657 187.822 5.56499 192.092 3.36627C196.361 1.1704 201.303 0.0699768 206.92 0.0699768C212.462 0.0699768 217.349 1.15047 221.581 3.31004C225.812 5.47103 229.088 8.41428 231.41 12.1362C233.731 15.8624 234.894 20.0712 234.894 24.7626V25.2096C234.894 26.4026 234.293 26.9962 233.096 26.9962H223.771C223.247 26.9962 222.816 26.9058 222.48 26.7179C222.142 26.5329 221.974 26.2901 221.974 25.9919V25.0979C221.974 21.0756 220.606 17.7615 217.874 15.1549C215.139 12.5483 211.488 11.2436 206.92 11.2436C202.352 11.2436 198.681 12.6032 195.91 15.3215C193.139 18.0419 191.754 21.635 191.754 26.1022V54.0349C191.754 58.505 193.214 62.1002 196.136 64.8186C199.057 67.5376 202.838 68.895 207.482 68.895C211.976 68.895 215.514 67.7219 218.099 65.3766C220.682 63.0305 221.974 59.8083 221.974 55.7112V48.8958C221.974 48.4488 221.749 48.226 221.3 48.226H208.044C206.845 48.226 206.246 47.6303 206.246 46.438V39.0639C206.246 37.8745 206.845 37.2773 208.044 37.2773H233.096C234.293 37.2773 234.894 37.8745 234.894 39.0639V52.9196C234.894 61.4845 232.366 68.1526 227.31 72.9173C222.255 77.6863 215.459 80.07 206.92 80.07C201.303 80.07 196.361 78.9696 192.092 76.7723Z" fill="white"/>
</g>
<path fill-rule="evenodd" clip-rule="evenodd" d="M342.128 3.56212V11.2793C342.128 12.4736 341.522 13.0686 340.315 13.0686H320.044C319.59 13.0686 319.364 13.2931 319.364 13.7406V78.28C319.364 79.4721 318.759 80.07 317.552 80.07H308.038C306.83 80.07 306.226 79.4721 306.226 78.28V13.7406C306.226 13.2931 306 13.0686 305.547 13.0686H286.067C284.859 13.0686 284.255 12.4736 284.255 11.2793V3.56212C284.255 2.36998 284.859 1.77213 286.067 1.77213H340.315C341.522 1.77213 342.128 2.36998 342.128 3.56212Z" fill="white"/>
<path fill-rule="evenodd" clip-rule="evenodd" d="M364.036 77.2755C359.736 75.4142 356.429 72.7898 354.114 69.3981C351.795 66.0099 350.638 62.0801 350.638 57.6108V55.2654C350.638 54.0739 351.235 53.4767 352.432 53.4767H361.625C362.821 53.4767 363.42 54.0347 363.42 55.1529V56.941C363.42 60.3675 364.933 63.2169 367.96 65.4882C370.987 67.7617 375.004 68.8948 380.013 68.8948C384.571 68.8948 388.009 67.9282 390.327 65.9914C392.643 64.0546 393.803 61.5605 393.803 58.5055C393.803 56.4199 393.167 54.6497 391.896 53.1983C390.625 51.7463 388.814 50.4231 386.459 49.2308C384.105 48.0393 380.573 46.5495 375.864 44.7629C370.556 42.8261 366.259 41.0017 362.971 39.2863C359.681 37.5737 356.934 35.2476 354.73 32.3029C352.525 29.3632 351.423 25.6946 351.423 21.2979C351.423 14.7451 353.814 9.56677 358.598 5.76792C363.381 1.96979 369.772 0.0700073 377.77 0.0700073C383.376 0.0700073 388.327 1.03947 392.626 2.97484C396.923 4.91306 400.267 7.61076 402.66 11.0751C405.051 14.5394 406.248 18.5432 406.248 23.0866V24.5379C406.248 25.7323 405.649 26.326 404.454 26.326H395.26C394.736 26.326 394.308 26.1971 393.971 25.9352C393.635 25.6747 393.466 25.3594 393.466 24.9864V23.7564C393.466 20.2551 392.026 17.2954 389.15 14.8739C386.272 12.4538 382.291 11.243 377.21 11.243C373.098 11.243 369.903 12.0993 367.623 13.8119C365.343 15.5273 364.204 17.946 364.204 21.0751C364.204 23.3108 364.801 25.1351 365.998 26.5502C367.193 27.9659 368.987 29.2507 371.379 30.4046C373.771 31.5605 377.471 33.0304 382.479 34.8191C387.785 36.8285 392.026 38.6557 395.204 40.2928C398.38 41.9321 401.108 44.2233 403.389 47.1637C405.668 50.1063 406.809 53.7756 406.809 58.1688C406.809 62.4908 405.686 66.3096 403.444 69.6223C401.202 72.9385 397.988 75.5067 393.803 77.3317C389.616 79.1575 384.682 80.07 379.003 80.07C373.322 80.07 368.333 79.1397 364.036 77.2755Z" fill="white"/>
</g>
<defs>
<clipPath id="clip0_9_863">
<rect width="407" height="81" fill="white"/>
</clipPath>
</defs>
</svg>
